<?xml version="1.0" standalone="no"?>
<!DOCTYPE svg PUBLIC "-//W3C//DTD SVG 20010904//EN"
 "http://www.w3.org/TR/2001/REC-SVG-20010904/DTD/svg10.dtd">
<svg version="1.0" xmlns="http://www.w3.org/2000/svg"
 width="360.000000pt" height="360.000000pt" viewBox="0 0 360.000000 360.000000"
 preserveAspectRatio="xMidYMid meet">

<g transform="translate(0.000000,360.000000) scale(0.100000,-0.100000)"
fill="#dbdfea" stroke="none">
<path d="M1614 3167 c-42 -23 -1182 -1158 -1198 -1191 -48 -100 19 -213 132
-224 34 -3 59 1 82 13 18 9 224 207 459 440 l426 423 5 -1181 c4 -873 8 -1187
17 -1202 66 -114 221 -118 286 -8 16 28 17 103 18 1212 0 649 3 1181 7 1181 4
0 200 -193 437 -429 236 -237 443 -435 458 -440 133 -50 266 77 213 203 -11
26 -189 209 -597 614 -319 318 -593 582 -607 589 -35 16 -111 16 -138 0z"/>
</g>
</svg>
