<?xml version="1.0" standalone="no"?>
<!DOCTYPE svg PUBLIC "-//W3C//DTD SVG 20010904//EN"
 "http://www.w3.org/TR/2001/REC-SVG-20010904/DTD/svg10.dtd">
<svg version="1.0" xmlns="http://www.w3.org/2000/svg"
 width="840.000000pt" height="859.000000pt" viewBox="0 0 840.000000 859.000000"
 preserveAspectRatio="xMidYMid meet">

<g transform="translate(0.000000,859.000000) scale(0.100000,-0.100000)"
fill="#dbdfea" stroke="none">
<path d="M4075 8546 c-177 -56 -306 -205 -335 -386 -6 -44 -10 -1125 -10
-3285 l0 -3220 -1038 1036 c-681 681 -1053 1046 -1085 1064 -191 109 -420 81
-573 -70 -152 -150 -186 -361 -88 -558 21 -42 303 -329 1507 -1534 1316 -1317
1488 -1486 1542 -1512 153 -75 338 -64 476 29 24 16 704 690 1510 1497 1614
1616 1503 1497 1536 1661 46 225 -99 462 -324 532 -71 22 -180 26 -252 9 -127
-29 -82 12 -1208 -1113 l-1053 -1051 0 3255 c0 2686 -3 3264 -14 3305 -42 159
-164 289 -317 336 -71 22 -212 25 -274 5z"/>
</g>
</svg>
